<?xml version="1.0" encoding="utf-8"?>
<!-- Generator: Adobe Illustrator 16.0.4, SVG Export Plug-In . SVG Version: 6.00 Build 0)  -->
<!DOCTYPE svg PUBLIC "-//W3C//DTD SVG 1.1//EN" "http://www.w3.org/Graphics/SVG/1.1/DTD/svg11.dtd">
<svg version="1.1" id="Layer_1" xmlns="http://www.w3.org/2000/svg" xmlns:xlink="http://www.w3.org/1999/xlink" x="0px" y="0px"
	 width="2000px" height="60px" viewBox="0 0 2000 60" enable-background="new 0 0 2000 60" xml:space="preserve">
<g>
	<path fill="#FAFAFA" d="M131.949,10.127c-5.205,0-7.949,2.696-8.949,3.452V11h-7v29h8V23.995c0-4.082,2.116-6.289,5.504-6.289
		c3.498,0,5.496,2.342,5.496,6.289V40h8V21.729C143,14.643,138.082,10.127,131.949,10.127z"/>
	<path fill="#FAFAFA" d="M212.783,10.127c-8.886-0.001-15.685,6.882-15.685,15.329c0,8.45,6.799,15.312,15.685,15.312
		c8.886,0,15.681-6.857,15.681-15.312C228.464,17.01,221.669,10.127,212.783,10.127z M212.839,32.828
		c-4.228,0-7.26-3.325-7.26-7.372c0-4.053,3.032-7.37,7.26-7.37c4.225,0,7.256,3.317,7.256,7.37
		C220.095,29.502,217.063,32.828,212.839,32.828z"/>
	<path fill="#FAFAFA" d="M94.765,10.134c-8.882,0-15.676,6.875-15.676,15.326c0,8.445,6.794,15.31,15.676,15.31
		c8.891,0,15.688-6.858,15.688-15.31C110.454,17.009,103.656,10.134,94.765,10.134z M94.825,32.828c-4.223,0-7.256-3.32-7.256-7.372
		c0-4.048,3.034-7.37,7.256-7.37c4.227,0,7.257,3.321,7.257,7.37C102.082,29.507,99.053,32.828,94.825,32.828z"/>
	<rect x="270" y="11" fill="#FAFAFA" width="8" height="29"/>
	<rect x="270" fill="#FAFAFA" width="8" height="7"/>
	<rect x="286" fill="#FAFAFA" width="8" height="40"/>
	<path fill="#FAFAFA" d="M250.959,10.138c-5.906,0-8.959,2.696-8.959,2.996V0h-8v40h8v0.1l-0.032-2.254
		c0.607,0.457,3.236,2.926,8.877,2.926c7.408,0,14.292-6.619,14.292-15.312C265.137,16.743,258.692,10.138,250.959,10.138z
		 M248.905,32.777c-4.207,0-7.363-3.198-7.363-7.318c0-4.17,3.2-7.339,7.372-7.339c4.201,0,7.332,3.194,7.332,7.318
		C256.245,29.571,253.073,32.777,248.905,32.777z"/>
	<polygon fill="#FAFAFA" points="81.699,11 71.575,11 58.549,27.568 52.908,22.054 67.396,4 57.311,4 47.419,16.605 42.041,11 
		30.006,11 42.132,23.051 28.431,40 38.498,40 47.562,28.448 53.207,34.511 40.282,51 50.403,51 58.669,39.758 74.244,55 86.451,55 
		64.069,32.882 	"/>
	<polygon fill="#FAFAFA" points="0,40 27,40 27,33 8,33 8,23 25,23 25,16 8,16 8,7 27,7 27,0 0,0 	"/>
	<polygon fill="#FAFAFA" points="171.385,29 171.086,29 164.377,0 151,0 151,40 159,40 159,10 159.013,10 166.291,40 175.785,40 
		183.231,10 183,10 183,40 192,40 192,0 178.258,0 	"/>
</g>
<g>
	<path fill="#999999" d="M431.949,10.127c-5.205,0-7.949,2.696-8.949,3.452V11h-7v29h8V23.995c0-4.082,2.116-6.289,5.504-6.289
		c3.498,0,5.496,2.342,5.496,6.289V40h8V21.729C443,14.643,438.082,10.127,431.949,10.127z"/>
	<path fill="#999999" d="M512.783,10.127c-8.886-0.001-15.688,6.882-15.688,15.329c0,8.45,6.802,15.312,15.688,15.312
		s15.681-6.857,15.681-15.312C528.464,17.01,521.669,10.127,512.783,10.127z M512.839,32.828c-4.228,0-7.26-3.325-7.26-7.372
		c0-4.053,3.032-7.37,7.26-7.37s7.256,3.317,7.256,7.37C520.095,29.502,517.062,32.828,512.839,32.828z"/>
	<path fill="#999999" d="M394.765,10.134c-8.882,0-15.676,6.875-15.676,15.326c0,8.445,6.794,15.31,15.676,15.31
		c8.894,0,15.688-6.858,15.688-15.31C410.454,17.009,403.656,10.134,394.765,10.134z M394.825,32.828
		c-4.226,0-7.256-3.32-7.256-7.372c0-4.048,3.031-7.37,7.256-7.37c4.227,0,7.257,3.321,7.257,7.37
		C402.082,29.507,399.053,32.828,394.825,32.828z"/>
	<rect x="570" y="11" fill="#999999" width="8" height="29"/>
	<rect x="570" fill="#999999" width="8" height="7"/>
	<rect x="586" fill="#999999" width="8" height="40"/>
	<path fill="#999999" d="M550.959,10.138c-5.906,0-8.959,2.696-8.959,2.996V0h-8v40h8v0.1l-0.032-2.254
		c0.607,0.457,3.236,2.926,8.877,2.926c7.408,0,14.292-6.619,14.292-15.312C565.137,16.743,558.692,10.138,550.959,10.138z
		 M548.905,32.777c-4.207,0-7.363-3.198-7.363-7.318c0-4.17,3.2-7.339,7.372-7.339c4.201,0,7.332,3.194,7.332,7.318
		C556.245,29.571,553.073,32.777,548.905,32.777z"/>
	<polygon fill="#999999" points="381.699,11 371.575,11 358.549,27.568 352.908,22.054 367.396,4 357.311,4 347.419,16.605 
		342.041,11 330.006,11 342.132,23.051 328.431,40 338.498,40 347.562,28.448 353.207,34.511 340.282,51 350.403,51 358.669,39.758 
		374.244,55 386.451,55 364.069,32.882 	"/>
	<polygon fill="#999999" points="300,40 327,40 327,33 308,33 308,23 325,23 325,16 308,16 308,7 327,7 327,0 300,0 	"/>
	<polygon fill="#999999" points="471.385,29 471.086,29 464.377,0 451,0 451,40 459,40 459,10 459.013,10 466.291,40 475.785,40 
		483.231,10 483,10 483,40 492,40 492,0 478.258,0 	"/>
</g>
<g>
	<path fill="#999999" d="M709.628,18.923c-4.319,0-6.628,2.238-7.628,2.865V20h-6v24h7V30.433c0-3.387,1.691-5.219,4.503-5.219
		c2.903,0,4.497,1.944,4.497,5.219V44h7V28.552C719,22.671,714.718,18.923,709.628,18.923z"/>
	<path fill="#999999" d="M776.596,18.923c-7.375-0.001-13.018,5.712-13.018,12.722c0,7.018,5.643,12.709,13.018,12.709
		s13.019-5.691,13.019-12.709C789.609,24.636,783.971,18.923,776.596,18.923z M776.642,37.764c-3.509,0-6.021-2.76-6.021-6.117
		c0-3.359,2.517-6.112,6.021-6.112c3.511,0,6.022,2.753,6.022,6.112C782.664,35.004,780.146,37.764,776.642,37.764z"/>
	<path fill="#999999" d="M678.648,18.929c-7.371,0-13.015,5.706-13.015,12.719c0,7.009,5.644,12.705,13.015,12.705
		c7.379,0,13.021-5.695,13.021-12.705C691.669,24.635,686.027,18.929,678.648,18.929z M678.698,37.764
		c-3.505,0-6.022-2.756-6.022-6.117c0-3.355,2.521-6.112,6.022-6.112c3.508,0,6.021,2.756,6.021,6.112
		C684.721,35.008,682.207,37.764,678.698,37.764z"/>
	<rect x="824" y="20" fill="#999999" width="7" height="24"/>
	<rect x="824" y="11" fill="#999999" width="7" height="6"/>
	<rect x="837" y="11" fill="#999999" width="7" height="33"/>
	<path fill="#999999" d="M808.357,18.933c-4.901,0-7.357,2.238-7.357,2.487V11h-7v33h7v-0.201l-0.104-1.871
		c0.504,0.379,2.646,2.428,7.324,2.428c6.148,0,11.885-5.487,11.885-12.707C820.104,24.415,814.775,18.933,808.357,18.933z
		 M806.574,37.723c-3.491,0-6.111-2.654-6.111-6.074c0-3.458,2.656-6.086,6.118-6.086c3.486,0,6.085,2.651,6.085,6.074
		C812.666,35.061,810.033,37.723,806.574,37.723z"/>
	<polygon fill="#999999" points="667.805,20 659.402,20 648.592,33.574 643.91,28.99 655.935,14 647.564,14 639.354,24.556 
		634.891,20 624.903,20 634.967,29.968 623.596,44 631.95,44 639.474,34.271 644.158,39.309 633.432,53 641.831,53 648.691,44.01 
		661.617,57 671.748,57 653.173,38.4 	"/>
	<polygon fill="#999999" points="600,44 622,44 622,38 607,38 607,30 621,30 621,24 607,24 607,17 622,17 622,11 600,11 	"/>
	<polygon fill="#999999" points="742.238,35 741.99,35 736.422,11 725,11 725,44 732,44 732,19 731.97,19 738.01,44 745.89,44 
		752.069,19 752,19 752,44 759,44 759,11 747.942,11 	"/>
</g>
<g>
	<rect x="1200" y="37" fill="#999999" width="74" height="10"/>
	<path fill="#999999" d="M1247.032,27.277c4.827,0,8.253-3.448,8.253-8.269c0-4.526-3.486-8.066-8.396-8.066
		c-4.457,0.001-8.19,3.318-8.19,8.174C1238.693,23.958,1242.432,27.277,1247.032,27.277z M1247.172,14.575
		c2.661,0,3.661,2.476,3.661,4.296c0,2.838-1.278,4.885-3.628,4.885c-2.814,0-3.991-1.887-3.991-4.875
		C1243.214,16.896,1244.023,14.575,1247.172,14.575z"/>
	<path fill="#999999" d="M1202.613,26.842c0,0-0.131,0.158-0.053,0.158c0.008,0,12.465,0,12.526,0c0.076,0-0.091-0.254-0.091-0.254
		s0-3.546,0-3.59c0-0.06,0.021,0.266-0.062,0.293c-0.828,0.247-3.182,0.551-3.182,0.551h-4.249c0,0-0.146-0.304-0.146-0.477
		s-0.014-2.117-0.014-2.273s0.159-0.238,0.159-0.238s7.466-0.041,7.499-0.041c0.083,0-0.006-0.118-0.006-0.118V17.51
		c0,0,0.089-0.078,0.006-0.078c-0.031,0-7.548,0.004-7.548,0.004s-0.126,0.002-0.126-0.154c0-0.156,0.008-1.933,0.008-2.104
		c0-0.173,0.145-0.177,0.145-0.177h4.259c0,0,2.247,0.008,3.202,0.179c0.084,0.015,0.059,0.032,0.059-0.026c0-0.044,0-3.606,0-3.606
		s0.085-0.077,0.011-0.077c-0.077,0-12.449,0.006-12.48,0.006c-0.081,0.001,0.064,0.068,0.064,0.068
		c0.12,0.158,0.405,0.993,0.405,2.402c0,0.001,0,10.104,0,10.104C1203,25.389,1202.73,26.685,1202.613,26.842z"/>
	<path fill="#999999" d="M1256.786,26.841c0,0-0.052,0.159,0.03,0.159c0.002,0,0.125,0,0.125,0h3.735c0,0,0.123,0,0.125,0
		c0.082,0,0.047-0.162,0.047-0.162c-0.105-0.142-0.127-0.973-0.18-2.747c0-0.023,0.004-5.676,0.006-5.932
		c0-0.006,0.002-0.014,0.002-0.014l5.508,8.646c0,0,0.007,0.1,0.019,0.11c0.007,0.007,0.04,0.098,0.04,0.098h4.338
		c0.017,0,0.215-0.094,0.229-0.11c0.017-0.016,0.188-0.129,0.188-0.129s0-11.326,0-12.817c0-2.077,0.041-2.095,0.073-2.134
		c0,0-0.146,0.191-0.229,0.191c-0.002,0-0.125,0-0.125,0h-3.879c0,0-0.123,0-0.125,0c-0.08,0-0.041-0.19-0.041-0.19
		c0.111,0.145,0.281,0.308,0.281,2.266c0,1.141-0.005,5.924-0.005,5.924h-0.004l-5.325-8.496c0,0-0.011,0.251-0.021,0.242
		c-0.011-0.007-0.021,0.254-0.026,0.254c-0.241,0-4.753,0-4.759,0c-0.084,0-0.03-0.2-0.03-0.2c0.133,0.169,0.214-0.071,0.214,2.69
		v9.556C1257,26.195,1256.985,26.561,1256.786,26.841z"/>
	<path fill="#999999" d="M1215.844,11.538c0.019,0.011,0.029,0.024,0.04,0.033c0.146,0.107,0.174,0.136,0.325,0.267
		c0.786,0.682,2.151,2.03,2.151,2.03l3.938,4.037c0,0,0.003,0.003,0.007,0.01c0.013,0.014,0.018,0.039-0.009,0.071
		c-0.004,0.006-0.062,0.096-0.172,0.253c-0.317,0.467-4.399,6.35-4.399,6.35s-0.797,1.032-1.044,1.358
		c-0.438,0.584-0.654,0.77-0.677,0.788c-0.016,0.018-0.021,0.132-0.011,0.152c0.007,0.01,0.021,0.113,0.053,0.113
		c0.001,0,0.062,0,0.075,0c0,0,4.381-0.1,4.594-0.1c0.006,0,0.021-0.047,0.032-0.053c0.011-0.006,0.017-0.039,0.021-0.044
		c0.159-0.236,4.112-5.927,4.162-6.001c0.064-0.091,0.064-0.097,0.152-0.006l2.263,2.324c0.042,0.04,0.059,0.062,0.021,0.121
		c0,0-3.635,5.237-4.774,6.894c-0.159,0.23-0.851,1.129-1.287,1.547c-0.016,0.021-0.021,0.168-0.008,0.188
		c0.016,0.014,0.043,0.136,0.05,0.136c0,0,4.499,0,4.688,0c0,0,0.021-0.125,0.024-0.128c0.011-0.005,0.021-0.078,0.023-0.082
		c0.153-0.229,3.905-5.677,3.905-5.677c0.101-0.14,0.101-0.155,0.233-0.016c0,0,7.464,7.67,7.467,7.674
		c0.007,0.008,0.016,0.111,0.021,0.115c0.01,0.004,0.02,0.108,0.026,0.108h5.95c0.036,0,0.042-0.147,0.04-0.153
		c0-0.015-0.007-0.078-0.021-0.09c-0.021-0.015-0.046-0.062-0.062-0.074c-1.188-1.062-1.595-1.475-2.511-2.463
		c0,0-8.452-8.714-8.534-8.798c-0.045-0.046-0.045-0.05,0-0.115c0.021-0.033,6.21-8.967,6.446-9.312
		c0.067-0.099,0.629-0.866,0.748-1.015c0.224-0.277,0.389-0.422,0.416-0.454c0.017-0.013,0.021,0.242,0.014,0.225
		c-0.021-0.018-0.055,0.25-0.111,0.25h-4.553c0,0-0.021-0.271-0.029-0.265c-0.012,0.005-0.021-0.114-0.021-0.114l-5.583,7.983
		c-0.05,0.07-0.05,0.036-0.118-0.034l-2.312-2.398c-0.029-0.031-0.029-0.04,0-0.083c0,0,5.006-7.228,5.009-7.23
		c0.344-0.471,0.64-0.844,0.866-1.077c0.034-0.035,0.064-0.063,0.097-0.093c0.02-0.017,0.021-0.039,0.012-0.059
		c-0.011-0.012-0.021-0.02-0.054-0.02c-0.038,0-4.455,0.004-4.609,0.004c-0.013,0-0.021,0.001-0.028,0.008
		c-0.009,0.005-0.019,0.011-0.021,0.017c-0.157,0.235-3.905,5.662-3.927,5.681c-0.033,0.035-0.053,0.039-0.094,0
		c-0.067-0.068-2.762-2.847-2.762-2.847s-0.014,0.262-0.021,0.259c-0.007-0.005-0.021,0.268-0.021,0.268s-6.094,0-6.104,0
		c-0.045,0-0.043-0.249-0.042-0.239c0.001,0.011,0.007-0.116,0.021-0.102C1215.83,11.663,1215.837,11.532,1215.844,11.538z"/>
</g>
<g>
	<path fill="#999999" d="M1605.039,27.677c0-9.578,11.958-17.343,26.713-17.343c14.75,0,26.71,7.765,26.71,17.343
		c0,9.578-11.96,17.343-26.71,17.343C1616.997,45.02,1605.039,37.255,1605.039,27.677L1605.039,27.677z M1631.775,49.82
		c17.553,0,31.773-9.942,31.773-22.21c0-12.267-14.225-22.211-31.773-22.211S1600,15.344,1600,27.61S1614.227,49.82,1631.775,49.82
		L1631.775,49.82z"/>
	<path fill="#999999" d="M1621.053,17.657l-0.229,3.096c-1.271-0.34-2.707-1.101-4.087-0.396c-1.021,0.479-0.983,1.67-0.683,2.452
		c0.819,1.41,2.665,1.213,4.188,1.213c0,0.93,0,1.82,0,2.675c-0.899,0-1.906,0.027-2.812,0.292
		c-0.438,0.131-1.021,0.381-1.228,0.585c-0.285,0.287-0.486,0.786-0.521,1.249c-0.021,0.373,0.044,0.799,0.232,1.062
		c1.099,1.465,3.27,0.676,4.65,0.396l0.396,3.156c-1.787,0.752-4.146,1.062-6.155,0.502c-0.623-0.172-1.15-0.373-1.738-0.782
		c-0.735-0.583-1.282-1.28-1.606-2.054c-0.381-0.915-0.455-1.933-0.165-2.999c0.31-1.297,1.438-2.284,2.593-2.848
		c-1.146-0.663-1.917-1.467-2.312-2.594c-0.226-0.83-0.166-1.647,0.052-2.409c0.146-0.507,0.241-0.795,0.633-1.39
		c0.537-0.817,1.649-1.475,2.662-1.778c1.438-0.431,3.057-0.355,4.547-0.008C1620.347,17.306,1620.492,17.428,1621.053,17.657
		L1621.053,17.657z M1650.112,20.753c-2.001-0.227-4.792-0.453-5.979,1.774c-1.438,2.623-1.381,6.515-0.279,9.276
		c0.593,1.188,1.807,1.975,2.985,2.312c2.255,0.395,4.709,0.141,6.007-1.917c1.41-2.679,1.493-6.683,0.146-9.389
		C1652.454,21.71,1651.291,20.91,1650.112,20.753L1650.112,20.753z M1650.105,24.977c0.478,1.375,0.441,3.688-0.053,5.048
		c-0.457,1.043-1.312,1.173-2.104,0.973c-0.415-0.172-0.842-0.572-1.049-1.173c-0.39-1.403-0.404-3.659,0.1-4.991
		c0.416-1.129,1.396-1.016,2.098-0.9C1649.553,24.016,1649.919,24.417,1650.105,24.977L1650.105,24.977z M1624.652,21.033
		c-1.578,0.79-2.312,2.341-2.197,4.089c0,2.756,3.411,2.932,5.047,4.625c0.316,0.51,0.006,1.155-0.458,1.338
		c-1.445,0.67-3.151-0.353-4.449-1.057l0.145,3.412c1.943,0.85,4.88,1.324,6.821,0.111c1.298-0.816,1.979-2.113,2.029-3.523
		c0-3.138-3.409-3.443-5.373-4.72c-0.256-0.136-0.242-0.554-0.175-0.804c0.073-0.271,0.212-0.541,0.521-0.629
		c1.691-0.508,3.164,0.26,4.488,0.965l-0.14-3.271C1629.081,20.78,1626.655,20.188,1624.652,21.033L1624.652,21.033z
		 M1635.057,21.033c-1.58,0.79-2.312,2.341-2.195,4.089c0,2.756,3.408,2.932,5.049,4.625c0.312,0.51,0.006,1.155-0.458,1.338
		c-1.446,0.67-3.152-0.353-4.449-1.057l0.14,3.412c1.947,0.85,4.883,1.324,6.825,0.111c1.295-0.816,1.978-2.113,2.03-3.523
		c0-3.138-3.393-3.457-5.369-4.717c-0.24-0.174-0.25-0.58-0.16-0.836c0.082-0.233,0.296-0.535,0.535-0.609
		c1.666-0.48,3.132,0.27,4.458,0.977l-0.142-3.271C1639.482,20.78,1637.059,20.188,1635.057,21.033L1635.057,21.033z"/>
</g>
<g>
	<g>
		<g>
			<path fill="#999999" d="M1842.174,5.957c-2.795,0-5.114-0.136-7.405,0.063c-0.938,0.083-2.092,0.667-2.673,1.393
				c-3.688,4.64-7.247,9.379-10.929,14.193c-0.858-1.069-1.529-1.948-2.254-2.783c-0.665-0.761-1.34-2.034-2.104-2.106
				c-2.74-0.258-5.521-0.103-8.599-0.103c2.979,3.909,5.664,7.428,8.378,10.985c-5.474,7.15-10.883,14.221-16.588,21.67
				c2.726,0,4.948-0.096,7.158,0.028c1.453,0.078,2.302-0.479,3.135-1.598c3.538-4.729,7.167-9.39,10.816-14.146
				c0.662,0.813,1.201,1.496,1.759,2.164c0.802,0.951,1.52,2.592,2.438,2.713c2.786,0.356,5.65,0.129,8.772,0.129
				c-2.964-3.877-5.646-7.387-8.387-10.975C1831.131,20.458,1836.49,13.42,1842.174,5.957z M1828.821,37.646
				c-2.724-2.215-5.155-4.201-7.714-6.289c-4.623,4.795-9.229,9.574-13.979,14.498c3.468-5.715,6.787-11.271,10.21-16.765
				c0.707-1.137,0.755-1.996,0.125-3.167c-1.344-2.514-2.52-5.112-3.479-7.917c2.354,1.913,4.718,3.822,7.184,5.821
				c4.729-4.928,9.373-9.775,14.062-14.666c-3.396,5.577-6.729,11.14-10.158,16.645c-0.771,1.24-0.975,2.188-0.195,3.576
				C1826.301,31.939,1827.413,34.655,1828.821,37.646z M1867.574,16.118c-6.494,0.013-11.688,4.998-11.726,11.401
				c-0.043,6.375,5.101,11.411,11.646,11.407c6.56,0,11.473-4.808,11.483-11.227C1879.564,22.224,1874.511,16.108,1867.574,16.118z
				 M1867.504,32.652c-2.604,0.017-5.166-2.506-5.174-5.092c-0.008-2.678,2.396-5.032,5.136-5.039c2.761-0.006,5.142,2.3,5.153,5
				C1872.634,30.117,1870.119,32.637,1867.504,32.652z M1837.308,16.595c-0.478,0-1.147,0.14-1.396,0.463
				c-1.41,1.84-2.729,3.76-4.3,5.975h8.967v15.339h7.438V22.937h7.62v-6.365C1849.417,16.571,1843.363,16.562,1837.308,16.595z"/>
		</g>
	</g>
</g>
<g>
	<path fill="#FAFAFA" d="M1009.628,18.923c-4.319,0-6.628,2.238-7.628,2.865V20h-6v24h7V30.433c0-3.387,1.691-5.219,4.503-5.219
		c2.903,0,4.497,1.944,4.497,5.219V44h7V28.552C1019,22.671,1014.718,18.923,1009.628,18.923z"/>
	<path fill="#FAFAFA" d="M1076.596,18.923c-7.375-0.001-13.018,5.712-13.018,12.722c0,7.018,5.643,12.709,13.018,12.709
		s13.019-5.691,13.019-12.709C1089.609,24.636,1083.971,18.923,1076.596,18.923z M1076.642,37.764c-3.509,0-6.021-2.76-6.021-6.117
		c0-3.359,2.517-6.112,6.021-6.112c3.511,0,6.022,2.753,6.022,6.112C1082.664,35.004,1080.146,37.764,1076.642,37.764z"/>
	<path fill="#FAFAFA" d="M978.648,18.929c-7.371,0-13.015,5.706-13.015,12.719c0,7.009,5.644,12.705,13.015,12.705
		c7.379,0,13.021-5.695,13.021-12.705C991.669,24.635,986.027,18.929,978.648,18.929z M978.698,37.764
		c-3.505,0-6.022-2.756-6.022-6.117c0-3.355,2.521-6.112,6.022-6.112c3.508,0,6.021,2.756,6.021,6.112
		C984.721,35.008,982.207,37.764,978.698,37.764z"/>
	<rect x="1124" y="20" fill="#FAFAFA" width="7" height="24"/>
	<rect x="1124" y="11" fill="#FAFAFA" width="7" height="6"/>
	<rect x="1137" y="11" fill="#FAFAFA" width="7" height="33"/>
	<path fill="#FAFAFA" d="M1108.357,18.933c-4.901,0-7.357,2.238-7.357,2.487V11h-7v33h7v-0.201l-0.104-1.871
		c0.504,0.379,2.646,2.428,7.324,2.428c6.148,0,11.885-5.487,11.885-12.707C1120.104,24.415,1114.775,18.933,1108.357,18.933z
		 M1106.574,37.723c-3.491,0-6.111-2.654-6.111-6.074c0-3.458,2.656-6.086,6.118-6.086c3.486,0,6.085,2.651,6.085,6.074
		C1112.666,35.061,1110.033,37.723,1106.574,37.723z"/>
	<polygon fill="#FAFAFA" points="967.805,20 959.402,20 948.592,33.574 943.91,28.99 955.935,14 947.564,14 939.354,24.556 
		934.891,20 924.903,20 934.967,29.968 923.596,44 931.95,44 939.474,34.271 944.158,39.309 933.432,53 941.831,53 948.691,44.01 
		961.617,57 971.748,57 953.173,38.4 	"/>
	<polygon fill="#FAFAFA" points="900,44 922,44 922,38 907,38 907,30 921,30 921,24 907,24 907,17 922,17 922,11 900,11 	"/>
	<polygon fill="#FAFAFA" points="1042.238,35 1041.99,35 1036.422,11 1025,11 1025,44 1032,44 1032,19 1031.97,19 1038.01,44 
		1045.89,44 1052.069,19 1052,19 1052,44 1059,44 1059,11 1047.942,11 	"/>
</g>
<g>
	<rect x="1300" y="37" fill="#FAFAFA" width="74" height="10"/>
	<path fill="#FAFAFA" d="M1347.032,27.277c4.827,0,8.253-3.448,8.253-8.269c0-4.526-3.486-8.066-8.396-8.066
		c-4.457,0.001-8.19,3.318-8.19,8.174C1338.693,23.958,1342.432,27.277,1347.032,27.277z M1347.172,14.575
		c2.661,0,3.661,2.476,3.661,4.296c0,2.838-1.278,4.885-3.628,4.885c-2.814,0-3.991-1.887-3.991-4.875
		C1343.214,16.896,1344.023,14.575,1347.172,14.575z"/>
	<path fill="#FAFAFA" d="M1302.613,26.842c0,0-0.131,0.158-0.053,0.158c0.008,0,12.465,0,12.526,0c0.076,0-0.091-0.254-0.091-0.254
		s0-3.546,0-3.59c0-0.06,0.021,0.266-0.062,0.293c-0.828,0.247-3.182,0.551-3.182,0.551h-4.249c0,0-0.146-0.304-0.146-0.477
		s-0.014-2.117-0.014-2.273s0.159-0.238,0.159-0.238s7.466-0.041,7.499-0.041c0.083,0-0.006-0.118-0.006-0.118V17.51
		c0,0,0.089-0.078,0.006-0.078c-0.031,0-7.548,0.004-7.548,0.004s-0.126,0.002-0.126-0.154c0-0.156,0.008-1.933,0.008-2.104
		c0-0.173,0.145-0.177,0.145-0.177h4.259c0,0,2.247,0.008,3.202,0.179c0.084,0.015,0.059,0.032,0.059-0.026c0-0.044,0-3.606,0-3.606
		s0.085-0.077,0.011-0.077c-0.077,0-12.449,0.006-12.48,0.006c-0.081,0.001,0.064,0.068,0.064,0.068
		c0.12,0.158,0.405,0.993,0.405,2.402c0,0.001,0,10.104,0,10.104C1303,25.389,1302.73,26.685,1302.613,26.842z"/>
	<path fill="#FAFAFA" d="M1356.786,26.841c0,0-0.052,0.159,0.03,0.159c0.002,0,0.125,0,0.125,0h3.735c0,0,0.123,0,0.125,0
		c0.082,0,0.047-0.162,0.047-0.162c-0.105-0.142-0.127-0.973-0.18-2.747c0-0.023,0.004-5.676,0.006-5.932
		c0-0.006,0.002-0.014,0.002-0.014l5.508,8.646c0,0,0.007,0.1,0.019,0.11c0.007,0.007,0.04,0.098,0.04,0.098h4.338
		c0.017,0,0.215-0.094,0.229-0.11c0.017-0.016,0.188-0.129,0.188-0.129s0-11.326,0-12.817c0-2.077,0.041-2.095,0.073-2.134
		c0,0-0.146,0.191-0.229,0.191c-0.002,0-0.125,0-0.125,0h-3.879c0,0-0.123,0-0.125,0c-0.08,0-0.041-0.19-0.041-0.19
		c0.111,0.145,0.281,0.308,0.281,2.266c0,1.141-0.005,5.924-0.005,5.924h-0.004l-5.325-8.496c0,0-0.011,0.251-0.021,0.242
		c-0.011-0.007-0.021,0.254-0.026,0.254c-0.241,0-4.755,0-4.76,0c-0.084,0-0.029-0.2-0.029-0.2c0.133,0.169,0.214-0.071,0.214,2.69
		v9.556C1357,26.195,1356.985,26.561,1356.786,26.841z"/>
	<path fill="#FAFAFA" d="M1315.844,11.538c0.019,0.011,0.029,0.024,0.04,0.033c0.146,0.107,0.174,0.136,0.325,0.267
		c0.786,0.682,2.151,2.03,2.151,2.03l3.938,4.037c0,0,0.003,0.003,0.007,0.01c0.013,0.014,0.018,0.039-0.009,0.071
		c-0.004,0.006-0.062,0.096-0.172,0.253c-0.317,0.467-4.399,6.35-4.399,6.35s-0.797,1.032-1.044,1.358
		c-0.438,0.584-0.654,0.77-0.677,0.788c-0.016,0.018-0.021,0.132-0.011,0.152c0.007,0.01,0.021,0.113,0.053,0.113
		c0.001,0,0.062,0,0.075,0c0,0,4.381-0.1,4.594-0.1c0.006,0,0.021-0.047,0.032-0.053c0.011-0.006,0.017-0.039,0.021-0.044
		c0.159-0.236,4.112-5.927,4.162-6.001c0.064-0.091,0.064-0.097,0.152-0.006l2.263,2.324c0.042,0.04,0.059,0.062,0.021,0.121
		c0,0-3.635,5.237-4.774,6.894c-0.159,0.23-0.851,1.129-1.287,1.547c-0.016,0.021-0.021,0.168-0.008,0.188
		c0.016,0.014,0.043,0.136,0.05,0.136c0,0,4.499,0,4.688,0c0,0,0.021-0.125,0.024-0.128c0.011-0.005,0.021-0.078,0.023-0.082
		c0.153-0.229,3.905-5.677,3.905-5.677c0.101-0.14,0.101-0.155,0.233-0.016c0,0,7.463,7.67,7.466,7.674
		c0.006,0.008,0.016,0.111,0.021,0.115c0.01,0.004,0.019,0.108,0.024,0.108h5.951c0.036,0,0.042-0.147,0.04-0.153
		c0-0.015-0.006-0.078-0.021-0.09c-0.021-0.015-0.046-0.062-0.062-0.074c-1.188-1.062-1.594-1.475-2.51-2.463
		c0,0-8.452-8.714-8.535-8.798c-0.045-0.046-0.045-0.05,0-0.115c0.022-0.033,6.21-8.967,6.447-9.312
		c0.067-0.099,0.629-0.866,0.748-1.015c0.223-0.277,0.388-0.422,0.416-0.454c0.016-0.013,0.019,0.242,0.013,0.225
		c-0.02-0.018-0.054,0.25-0.111,0.25h-4.553c0,0-0.021-0.271-0.031-0.265c-0.01,0.005-0.021-0.114-0.021-0.114l-5.583,7.983
		c-0.05,0.07-0.05,0.036-0.119-0.034l-2.312-2.398c-0.027-0.031-0.027-0.04,0-0.083c0,0,5.008-7.228,5.011-7.23
		c0.344-0.471,0.639-0.844,0.864-1.077c0.034-0.035,0.065-0.063,0.099-0.093c0.017-0.017,0.021-0.039,0.011-0.059
		c-0.01-0.012-0.021-0.02-0.053-0.02c-0.038,0-4.455,0.004-4.611,0.004c-0.011,0-0.021,0.001-0.026,0.008
		c-0.011,0.005-0.02,0.011-0.021,0.017c-0.159,0.235-3.907,5.662-3.927,5.681c-0.033,0.035-0.053,0.039-0.094,0
		c-0.067-0.068-2.764-2.847-2.764-2.847s-0.012,0.262-0.02,0.259c-0.007-0.005-0.023,0.268-0.023,0.268s-6.092,0-6.104,0
		c-0.045,0-0.043-0.249-0.042-0.239c0.001,0.011,0.007-0.116,0.021-0.102C1315.83,11.663,1315.837,11.532,1315.844,11.538z"/>
</g>
<g>
	<path fill="#FAFAFA" d="M1705.039,27.677c0-9.578,11.958-17.343,26.713-17.343c14.75,0,26.71,7.765,26.71,17.343
		c0,9.578-11.96,17.343-26.71,17.343C1716.997,45.02,1705.039,37.255,1705.039,27.677L1705.039,27.677z M1731.775,49.82
		c17.553,0,31.773-9.942,31.773-22.21c0-12.267-14.225-22.211-31.773-22.211S1700,15.344,1700,27.61S1714.227,49.82,1731.775,49.82
		L1731.775,49.82z"/>
	<path fill="#FAFAFA" d="M1721.053,17.657l-0.229,3.096c-1.271-0.34-2.707-1.101-4.087-0.396c-1.021,0.479-0.983,1.67-0.683,2.452
		c0.819,1.41,2.665,1.213,4.188,1.213c0,0.93,0,1.82,0,2.675c-0.899,0-1.906,0.027-2.812,0.292
		c-0.438,0.131-1.021,0.381-1.228,0.585c-0.285,0.287-0.486,0.786-0.521,1.249c-0.021,0.373,0.044,0.799,0.232,1.062
		c1.099,1.465,3.27,0.676,4.65,0.396l0.396,3.156c-1.787,0.752-4.146,1.062-6.155,0.502c-0.623-0.172-1.15-0.373-1.738-0.782
		c-0.735-0.583-1.282-1.28-1.606-2.054c-0.381-0.915-0.455-1.933-0.165-2.999c0.31-1.297,1.438-2.284,2.593-2.848
		c-1.146-0.663-1.917-1.467-2.312-2.594c-0.226-0.83-0.166-1.647,0.052-2.409c0.146-0.507,0.241-0.795,0.633-1.39
		c0.537-0.817,1.649-1.475,2.662-1.778c1.438-0.431,3.057-0.355,4.547-0.008C1720.347,17.306,1720.492,17.428,1721.053,17.657
		L1721.053,17.657z M1750.112,20.753c-2.001-0.227-4.792-0.453-5.979,1.774c-1.438,2.623-1.381,6.515-0.279,9.276
		c0.593,1.188,1.807,1.975,2.985,2.312c2.255,0.395,4.709,0.141,6.007-1.917c1.41-2.679,1.493-6.683,0.146-9.389
		C1752.454,21.71,1751.291,20.91,1750.112,20.753L1750.112,20.753z M1750.105,24.977c0.478,1.375,0.441,3.688-0.053,5.048
		c-0.457,1.043-1.312,1.173-2.104,0.973c-0.415-0.172-0.842-0.572-1.049-1.173c-0.39-1.403-0.404-3.659,0.1-4.991
		c0.416-1.129,1.396-1.016,2.098-0.9C1749.553,24.016,1749.919,24.417,1750.105,24.977L1750.105,24.977z M1724.652,21.033
		c-1.578,0.79-2.312,2.341-2.197,4.089c0,2.756,3.411,2.932,5.047,4.625c0.316,0.51,0.006,1.155-0.458,1.338
		c-1.445,0.67-3.151-0.353-4.449-1.057l0.145,3.412c1.943,0.85,4.88,1.324,6.821,0.111c1.298-0.816,1.979-2.113,2.029-3.523
		c0-3.138-3.409-3.443-5.373-4.72c-0.256-0.136-0.242-0.554-0.175-0.804c0.073-0.271,0.212-0.541,0.521-0.629
		c1.691-0.508,3.164,0.26,4.488,0.965l-0.14-3.271C1729.081,20.78,1726.655,20.188,1724.652,21.033L1724.652,21.033z
		 M1735.057,21.033c-1.58,0.79-2.312,2.341-2.195,4.089c0,2.756,3.408,2.932,5.049,4.625c0.312,0.51,0.006,1.155-0.458,1.338
		c-1.446,0.67-3.152-0.353-4.449-1.057l0.14,3.412c1.947,0.85,4.883,1.324,6.825,0.111c1.295-0.816,1.978-2.113,2.03-3.523
		c0-3.138-3.393-3.457-5.369-4.717c-0.24-0.174-0.25-0.58-0.16-0.836c0.082-0.233,0.296-0.535,0.535-0.609
		c1.666-0.48,3.132,0.27,4.458,0.977l-0.142-3.271C1739.482,20.78,1737.059,20.188,1735.057,21.033L1735.057,21.033z"/>
</g>
<g>
	<g>
		<g>
			<path fill="#FAFAFA" d="M1942.174,5.957c-2.795,0-5.114-0.136-7.405,0.063c-0.938,0.083-2.092,0.667-2.673,1.393
				c-3.688,4.64-7.247,9.379-10.929,14.193c-0.858-1.069-1.529-1.948-2.254-2.783c-0.665-0.761-1.34-2.034-2.104-2.106
				c-2.74-0.258-5.521-0.103-8.599-0.103c2.979,3.909,5.664,7.428,8.378,10.985c-5.474,7.15-10.883,14.221-16.588,21.67
				c2.726,0,4.948-0.096,7.158,0.028c1.453,0.078,2.302-0.479,3.135-1.598c3.538-4.729,7.167-9.39,10.816-14.146
				c0.662,0.813,1.201,1.496,1.759,2.164c0.802,0.951,1.52,2.592,2.438,2.713c2.786,0.356,5.65,0.129,8.772,0.129
				c-2.964-3.877-5.646-7.387-8.387-10.975C1931.131,20.458,1936.49,13.42,1942.174,5.957z M1928.821,37.646
				c-2.724-2.215-5.155-4.201-7.714-6.289c-4.623,4.795-9.229,9.574-13.979,14.498c3.468-5.715,6.787-11.271,10.21-16.765
				c0.707-1.137,0.755-1.996,0.125-3.167c-1.344-2.514-2.52-5.112-3.479-7.917c2.354,1.913,4.718,3.822,7.184,5.821
				c4.729-4.928,9.373-9.775,14.062-14.666c-3.396,5.577-6.729,11.14-10.158,16.645c-0.771,1.24-0.975,2.188-0.195,3.576
				C1926.301,31.939,1927.413,34.655,1928.821,37.646z M1967.574,16.118c-6.494,0.013-11.688,4.998-11.726,11.401
				c-0.043,6.375,5.101,11.411,11.646,11.407c6.56,0,11.473-4.808,11.483-11.227C1979.564,22.224,1974.511,16.108,1967.574,16.118z
				 M1967.504,32.652c-2.604,0.017-5.166-2.506-5.174-5.092c-0.008-2.678,2.396-5.032,5.136-5.039c2.761-0.006,5.142,2.3,5.153,5
				C1972.634,30.117,1970.119,32.637,1967.504,32.652z M1937.308,16.595c-0.478,0-1.147,0.14-1.396,0.463
				c-1.41,1.84-2.729,3.76-4.3,5.975h8.967v15.339h7.438V22.937h7.62v-6.365C1949.417,16.571,1943.363,16.562,1937.308,16.595z"/>
		</g>
	</g>
</g>
<g>
	<polygon fill="#999999" points="1400,17.356 1406.503,17.356 1410.178,29.685 1410.235,29.685 1413.967,17.356 1420.301,17.356 
		1420.301,37.431 1416.116,37.431 1416.116,23.237 1416.061,23.237 1412.045,37.431 1408.199,37.431 1404.241,23.237 
		1404.186,23.237 1404.186,37.431 1400,37.431 	"/>
	<polygon fill="#999999" points="1456.527,17.356 1460.713,17.356 1460.713,21.314 1456.527,21.314 	"/>
	<polygon fill="#999999" points="1456.527,22.729 1460.713,22.729 1460.713,37.431 1456.527,37.431 	"/>
	<polygon fill="#999999" points="1463.031,17.356 1467.216,17.356 1467.216,37.431 1463.031,37.431 	"/>
	<path fill="#999999" d="M1421.848,30.081c0-4.299,3.484-7.785,7.783-7.785c4.298,0,7.783,3.486,7.783,7.785
		c0,4.297-3.485,7.781-7.783,7.781S1421.848,34.378,1421.848,30.081L1421.848,30.081z M1429.623,33.651
		c1.97,0,3.567-1.598,3.567-3.566s-1.601-3.568-3.567-3.568s-3.568,1.598-3.568,3.568
		C1426.055,32.054,1427.653,33.651,1429.623,33.651L1429.623,33.651z"/>
	<path fill="#999999" d="M1439.168,37.431V17.356h4.184v6.503c1.159-0.989,2.488-1.47,4.02-1.47c4.239,0,7.407,3.59,7.407,7.717
		c0,4.129-3.194,7.664-7.407,7.664c-1.583,0-2.941-0.453-4.02-1.641v1.301H1439.168L1439.168,37.431z M1446.966,33.651
		c1.97,0,3.568-1.598,3.568-3.566s-1.6-3.568-3.568-3.568s-3.563,1.598-3.563,3.568
		C1443.402,32.054,1444.996,33.651,1446.966,33.651L1446.966,33.651z"/>
	<path fill="#999999" d="M1467.536,18.501c0,0.597,0.476,1.043,1.043,1.043c0.562,0,1.038-0.446,1.038-1.043
		c0-0.584-0.478-1.028-1.038-1.028C1468.011,17.474,1467.536,17.917,1467.536,18.501L1467.536,18.501z M1467.723,18.501
		c0-0.494,0.371-0.877,0.856-0.877c0.479,0,0.851,0.383,0.851,0.877c0,0.508-0.371,0.89-0.851,0.89
		C1468.094,19.392,1467.723,19.009,1467.723,18.501L1467.723,18.501z M1468.175,19.11h0.188v-0.521h0.197l0.326,0.521h0.203
		l-0.346-0.533c0.18-0.021,0.317-0.111,0.317-0.33c0-0.231-0.138-0.346-0.427-0.346h-0.468v1.209H1468.175z M1468.363,18.054h0.248
		c0.128,0,0.267,0.025,0.267,0.186c0,0.191-0.151,0.199-0.317,0.199h-0.193L1468.363,18.054L1468.363,18.054z"/>
</g>
<g>
	<polygon fill="#FAFAFA" points="1500,17.356 1506.503,17.356 1510.178,29.685 1510.235,29.685 1513.967,17.356 1520.301,17.356 
		1520.301,37.431 1516.116,37.431 1516.116,23.237 1516.061,23.237 1512.045,37.431 1508.199,37.431 1504.241,23.237 
		1504.186,23.237 1504.186,37.431 1500,37.431 	"/>
	<polygon fill="#FAFAFA" points="1556.527,17.356 1560.713,17.356 1560.713,21.314 1556.527,21.314 	"/>
	<polygon fill="#FAFAFA" points="1556.527,22.729 1560.713,22.729 1560.713,37.431 1556.527,37.431 	"/>
	<polygon fill="#FAFAFA" points="1563.031,17.356 1567.216,17.356 1567.216,37.431 1563.031,37.431 	"/>
	<path fill="#FAFAFA" d="M1521.848,30.081c0-4.299,3.484-7.785,7.783-7.785c4.298,0,7.783,3.486,7.783,7.785
		c0,4.297-3.485,7.781-7.783,7.781S1521.848,34.378,1521.848,30.081L1521.848,30.081z M1529.623,33.651
		c1.97,0,3.567-1.598,3.567-3.566s-1.601-3.568-3.567-3.568s-3.568,1.598-3.568,3.568
		C1526.055,32.054,1527.653,33.651,1529.623,33.651L1529.623,33.651z"/>
	<path fill="#FAFAFA" d="M1539.168,37.431V17.356h4.184v6.503c1.159-0.989,2.488-1.47,4.02-1.47c4.239,0,7.407,3.59,7.407,7.717
		c0,4.129-3.194,7.664-7.407,7.664c-1.583,0-2.941-0.453-4.02-1.641v1.301H1539.168L1539.168,37.431z M1546.966,33.651
		c1.97,0,3.568-1.598,3.568-3.566s-1.6-3.568-3.568-3.568s-3.563,1.598-3.563,3.568
		C1543.402,32.054,1544.996,33.651,1546.966,33.651L1546.966,33.651z"/>
	<path fill="#FAFAFA" d="M1567.536,18.501c0,0.597,0.476,1.043,1.043,1.043c0.562,0,1.038-0.446,1.038-1.043
		c0-0.584-0.478-1.028-1.038-1.028C1568.011,17.474,1567.536,17.917,1567.536,18.501L1567.536,18.501z M1567.723,18.501
		c0-0.494,0.371-0.877,0.856-0.877c0.479,0,0.851,0.383,0.851,0.877c0,0.508-0.371,0.89-0.851,0.89
		C1568.094,19.392,1567.723,19.009,1567.723,18.501L1567.723,18.501z M1568.175,19.11h0.188v-0.521h0.197l0.326,0.521h0.203
		l-0.346-0.533c0.18-0.021,0.317-0.111,0.317-0.33c0-0.231-0.138-0.346-0.427-0.346h-0.468v1.209H1568.175z M1568.363,18.054h0.248
		c0.128,0,0.267,0.025,0.267,0.186c0,0.191-0.151,0.199-0.317,0.199h-0.193L1568.363,18.054L1568.363,18.054z"/>
</g>
</svg>
